<svg aria-hidden="true" style="width:0;height:0;position:absolute;overflow:hidden" xmlns="http://www.w3.org/2000/svg"><defs><symbol id="icon-facebook" viewBox="0 0 16 32"><path d="M14.109 16h-3.927v14.836H3.927V16H1.018v-5.236h2.909V7.273c0-2.327 1.164-6.109 6.255-6.109h4.364v5.091h-3.2c-.436 0-1.164.291-1.164 1.455v2.909h4.364l-.291 5.382z"/></symbol><symbol id="icon-Git" viewBox="0 0 32 32"><path d="M16 0C7.163 0 0 7.163 0 16c0 7.52 5.28 14.4 12.32 16v-5.28h-2.08c-.96-.32-1.6-.96-2.24-1.92-.48-.64-1.12-1.28-1.6-1.28l-.32-1.76c1.6-.16 2.72.8 3.52 2.08.32.48.64.8 1.12.96h1.6c0-1.28.64-1.6 1.12-2.4-4.16-.48-5.92-2.72-6.4-4.48-.96-2.4-.48-5.28.96-7.04 0 0 .16-.16 0-.16-.64-2.24.32-4 .32-4.16.8.16.96-.32 3.52 1.28l.48.32h.32L16 7.68l3.36.48h.32c3.2-1.92 3.2-1.28 4-1.6 0 .16.96 1.92.16 4.16 0 .16 2.88 2.88 1.28 7.2-.64 1.6-2.4 4-6.4 4.48.32.8.96 1.28.96 3.04V32C26.72 30.4 32 23.52 32 16c0-8.837-7.163-16-16-16z"/></symbol><symbol id="icon-telegram" viewBox="0 0 44 32"><path d="m17.4 21-.8 9c1 0 1.4-.4 2-1l4.4-4 9.4 6.4c1.8 1 3 .4 3.4-1.4L42 3c.6-2.4-1-3-2.6-2.6l-36 12.8c-2.8 1-2.8 2.2-.8 2.8l9.4 2.6L33.6 6.2c1-.6 2-.4 1.2.2L17.4 21z"/></symbol></defs></svg>