<svg aria-hidden="true" style="width:0;height:0;position:absolute;overflow:hidden" xmlns="http://www.w3.org/2000/svg"><defs><symbol id="icon-contacts-vector-icon" viewBox="0 0 22 32"><path fill="none" stroke-linejoin="round" stroke-linecap="round" stroke-width="6.4" d="m4.488 3.2 13.7 12.8-13.7 12.8"/></symbol><symbol id="icon-close" viewBox="0 0 32 32"><path d="M31.439 3.166 28.273 0 15.72 12.553 3.167 0 .001 3.166l12.553 12.553L.001 28.272l3.166 3.166L15.72 18.885l12.553 12.553 3.166-3.166-12.553-12.553L31.439 3.166z"/></symbol><symbol id="icon-contacts-icon-modal-second" viewBox="0 0 27 32"><path d="M27.077 16c0 2.225-1.329 4.147-3.242 5.028l-1.865 7.82A4.108 4.108 0 0 1 17.951 32H9.125a4.108 4.108 0 0 1-4.019-3.152l-1.865-7.82C1.329 20.147-.001 18.225-.001 16c0-1.398.527-2.733 1.484-3.759a5.59 5.59 0 0 1 2.786-1.625c.276-2.636 2.529-4.698 5.259-4.698.16 0 .319.008.478.022a3.865 3.865 0 0 1 2.652-2.185c.068-.47.194-1.001.422-1.518.496-1.124 1.347-1.885 2.461-2.201.502-.142 1.025.146 1.169.644s-.147 1.017-.649 1.159c-.479.136-1.24.571-1.498 1.953a3.865 3.865 0 0 1 2.519 2.176c.236-.032.474-.049.714-.049 2.753 0 5.022 2.098 5.265 4.766 2.337.681 4.014 2.839 4.014 5.316zM13.538 5.529c-1.086 0-1.969.876-1.969 1.952s.883 1.952 1.969 1.952 1.969-.876 1.969-1.952-.883-1.952-1.969-1.952zM5.305 21.533l1.642 6.883a2.227 2.227 0 0 0 2.178 1.709h.068l-2.096-8.79a5.655 5.655 0 0 1-1.792.198zm9.171 8.592h1.465l2.296-9.626a5.648 5.648 0 0 1-.764-.652 5.637 5.637 0 0 1-2.997 1.599v8.679zm-3.34 0h1.448v-8.652a5.562 5.562 0 0 1-3.064-1.537 5.562 5.562 0 0 1-.679.569l2.294 9.62zm8.994-1.709 1.642-6.883a5.592 5.592 0 0 1-1.791-.201l-2.097 8.793h.068a2.226 2.226 0 0 0 2.178-1.709zm-1.839-10.582a3.717 3.717 0 0 0 3.199 1.831c2.038 0 3.696-1.644 3.696-3.665 0-1.821-1.37-3.381-3.187-3.629a.94.94 0 0 1-.815-.989c.006-.087.008-.157.008-.221 0-1.857-1.523-3.368-3.396-3.368-.139 0-.278.009-.415.025-.173 1.953-1.83 3.49-3.844 3.49-2.02 0-3.682-1.547-3.845-3.51a3.03 3.03 0 0 0-.165-.005c-1.873 0-3.396 1.511-3.396 3.368 0 .059.002.125.007.199a.94.94 0 0 1-.865.989 3.697 3.697 0 0 0-2.402 1.165A3.631 3.631 0 0 0 1.89 16c0 2.021 1.658 3.665 3.696 3.665a3.717 3.717 0 0 0 1.783-.452 3.694 3.694 0 0 0 1.35-1.269c.173-.273.475-.439.801-.439s.628.166.801.439a3.687 3.687 0 0 0 3.133 1.722 3.717 3.717 0 0 0 3.199-1.831.947.947 0 0 1 1.636 0z"/></symbol></defs></svg>