<svg aria-hidden="true" style="position: absolute; width: 0; height: 0; overflow: hidden;" version="1.1" xmlns="http://www.w3.org/2000/svg" xmlns:xlink="http://www.w3.org/1999/xlink">
<defs>
<symbol id="icon-contacts-vector-icon" viewBox="0 0 22 32">
<path fill="none" stroke-linejoin="round" stroke-linecap="round" stroke-miterlimit="4" stroke-width="6.4" d="M4.488 3.2l13.7 12.8-13.7 12.8"></path>
</symbol>
<symbol id="icon-close" viewBox="0 0 32 32">
<path d="M31.439 3.166l-3.166-3.166-12.553 12.553-12.553-12.553-3.166 3.166 12.553 12.553-12.553 12.553 3.166 3.166 12.553-12.553 12.553 12.553 3.166-3.166-12.553-12.553 12.553-12.553z"></path></symbol>
<symbol id="icon-contacts-icon-modal-second" viewBox="0 0 27 32">
<path d="M27.077 16c0 2.225-1.329 4.147-3.242 5.028l-1.865 7.82c-0.443 1.856-2.095 3.152-4.019 3.152h-8.826c-1.923 0-3.576-1.296-4.019-3.152l-1.865-7.82c-1.912-0.881-3.242-2.803-3.242-5.028 0-1.398 0.527-2.733 1.484-3.759 0.755-0.809 1.723-1.37 2.786-1.625 0.276-2.636 2.529-4.698 5.259-4.698 0.16 0 0.319 0.008 0.478 0.022 0.484-1.087 1.463-1.909 2.652-2.185 0.068-0.47 0.194-1.001 0.422-1.518 0.496-1.124 1.347-1.885 2.461-2.201 0.502-0.142 1.025 0.146 1.169 0.644s-0.147 1.017-0.649 1.159c-0.479 0.136-1.24 0.571-1.498 1.953 1.133 0.31 2.059 1.12 2.519 2.176 0.236-0.032 0.474-0.049 0.714-0.049 2.753 0 5.022 2.098 5.265 4.766 2.337 0.681 4.014 2.839 4.014 5.316zM13.538 5.529c-1.086 0-1.969 0.876-1.969 1.952s0.883 1.952 1.969 1.952c1.086 0 1.969-0.876 1.969-1.952s-0.883-1.952-1.969-1.952zM5.305 21.533l1.642 6.883c0.24 1.006 1.136 1.709 2.178 1.709h0.068l-2.096-8.79c-0.484 0.134-0.991 0.205-1.51 0.205-0.094 0-0.188-0.002-0.282-0.007zM14.476 30.125h1.465l2.296-9.626c-0.273-0.194-0.529-0.412-0.764-0.652-0.806 0.825-1.856 1.387-2.997 1.599v8.679zM11.136 30.125h1.448v-8.652c-1.165-0.18-2.233-0.717-3.064-1.537-0.212 0.209-0.439 0.398-0.679 0.569l2.294 9.62zM20.13 28.416l1.642-6.883c-0.093 0.005-0.187 0.007-0.282 0.007-0.516 0-1.024-0.072-1.509-0.208l-2.097 8.793h0.068c1.043 0 1.938-0.703 2.178-1.709zM18.291 17.834c0.66 1.129 1.886 1.831 3.199 1.831 2.038 0 3.696-1.644 3.696-3.665 0-1.821-1.37-3.381-3.187-3.629-0.491-0.067-0.846-0.499-0.815-0.989 0.006-0.087 0.008-0.157 0.008-0.221 0-1.857-1.523-3.368-3.396-3.368-0.139 0-0.278 0.009-0.415 0.025-0.173 1.953-1.83 3.49-3.844 3.49-2.020 0-3.682-1.547-3.845-3.51-0.055-0.003-0.11-0.005-0.165-0.005-1.873 0-3.396 1.511-3.396 3.368 0 0.059 0.002 0.125 0.007 0.199 0.030 0.508-0.354 0.946-0.865 0.989-0.919 0.076-1.772 0.49-2.402 1.165-0.633 0.678-0.981 1.561-0.981 2.486 0 2.021 1.658 3.665 3.696 3.665 0.6 0 1.176-0.141 1.689-0.402 0.030-0.018 0.062-0.035 0.094-0.050 0.541-0.296 1.008-0.728 1.35-1.269 0.173-0.273 0.475-0.439 0.801-0.439s0.628 0.166 0.801 0.439c0.682 1.078 1.853 1.722 3.133 1.722 1.313 0 2.539-0.702 3.199-1.831 0.169-0.289 0.481-0.467 0.818-0.467s0.649 0.178 0.818 0.467z"></path>
</symbol>
</defs>
</svg>
