<svg aria-hidden="true" style="position: absolute; width: 0; height: 0; overflow: hidden;" version="1.1" xmlns="http://www.w3.org/2000/svg" xmlns:xlink="http://www.w3.org/1999/xlink">
<defs>
<symbol id="icon-facebook" viewBox="0 0 16 32">
<path d="M14.109 16h-3.927v14.836h-6.255v-14.836h-2.909v-5.236h2.909v-3.491c0-2.327 1.164-6.109 6.255-6.109h4.364v5.091h-3.2c-0.436 0-1.164 0.291-1.164 1.455v2.909h4.364l-0.291 5.382z"></path>
</symbol>
<symbol id="icon-Git" viewBox="0 0 32 32">
<path  d="M16 0c-8.837 0-16 7.163-16 16v0c0 7.52 5.28 14.4 12.32 16v-5.28h-2.080c-0.96-0.32-1.6-0.96-2.24-1.92-0.48-0.64-1.12-1.28-1.6-1.28l-0.32-1.76c1.6-0.16 2.72 0.8 3.52 2.080 0.32 0.48 0.64 0.8 1.12 0.96h1.6c0-1.28 0.64-1.6 1.12-2.4-4.16-0.48-5.92-2.72-6.4-4.48-0.96-2.4-0.48-5.28 0.96-7.040 0 0 0.16-0.16 0-0.16-0.64-2.24 0.32-4 0.32-4.16 0.8 0.16 0.96-0.32 3.52 1.28l0.48 0.32h0.32l3.36-0.48 3.36 0.48h0.32c3.2-1.92 3.2-1.28 4-1.6 0 0.16 0.96 1.92 0.16 4.16 0 0.16 2.88 2.88 1.28 7.2-0.64 1.6-2.4 4-6.4 4.48 0.32 0.8 0.96 1.28 0.96 3.040v6.56c7.040-1.6 12.32-8.48 12.32-16 0-8.837-7.163-16-16-16v0z"></path>
</symbol>
<symbol id="icon-telegram" viewBox="0 0 44 32">
<path  d="M17.4 21l-0.8 9c1 0 1.4-0.4 2-1l4.4-4 9.4 6.4c1.8 1 3 0.4 3.4-1.4l6.2-27c0.6-2.4-1-3-2.6-2.6l-36 12.8c-2.8 1-2.8 2.2-0.8 2.8l9.4 2.6 21.6-12.4c1-0.6 2-0.4 1.2 0.2l-17.4 14.6z"></path>
</symbol>
</defs>
</svg>
